<?xml version="1.0" encoding="UTF-8" standalone="no"?>
<!-- Created with Inkscape (http://www.inkscape.org/) -->

<svg
   width="127mm"
   height="127mm"
   viewBox="0 0 127 127"
   version="1.1"
   id="svg5"
   xml:space="preserve"
   sodipodi:docname="gid-logo.svg"
   inkscape:version="1.2.2 (b0a8486541, 2022-12-01)"
   inkscape:export-filename="gid-logo.png"
   inkscape:export-xdpi="53.080818"
   inkscape:export-ydpi="53.080818"
   xmlns:inkscape="http://www.inkscape.org/namespaces/inkscape"
   xmlns:sodipodi="http://sodipodi.sourceforge.net/DTD/sodipodi-0.dtd"
   xmlns="http://www.w3.org/2000/svg"
   xmlns:svg="http://www.w3.org/2000/svg"><sodipodi:namedview
     id="namedview7"
     pagecolor="#ffffff"
     bordercolor="#666666"
     borderopacity="1.0"
     inkscape:showpageshadow="2"
     inkscape:pageopacity="0.0"
     inkscape:pagecheckerboard="0"
     inkscape:deskcolor="#d1d1d1"
     inkscape:document-units="mm"
     showgrid="false"
     inkscape:zoom="0.84096521"
     inkscape:cx="486.94048"
     inkscape:cy="349.59829"
     inkscape:window-width="1920"
     inkscape:window-height="1131"
     inkscape:window-x="0"
     inkscape:window-y="0"
     inkscape:window-maximized="1"
     inkscape:current-layer="layer2"><inkscape:grid
       type="xygrid"
       id="grid258"
       originx="-1.7578125e-06"
       originy="3.0224608e-07" /></sodipodi:namedview><defs
     id="defs2"><linearGradient
       x1="66"
       y1="50"
       x2="60"
       y2="99"
       id="gradient"
       gradientUnits="userSpaceOnUse"><stop
         style="stop-color: white; stop-opacity: 1"
         offset="0"
         id="stop217" /><stop
         style="stop-color: white; stop-opacity: 0"
         offset="1"
         id="stop219" /></linearGradient><clipPath
       clipPathUnits="userSpaceOnUse"
       id="clipPath376"><path
         id="path378"
         style="fill:#ffffff;stroke-width:0.161634"
         d="m 56.912852,52.279896 c -10.897,0 -19.79259,8.895249 -19.79259,19.569864 0,10.897002 8.895947,19.79259 19.348172,19.79259 11.341777,0 20.0148,-8.673203 20.0148,-19.79259 0,-10.674615 -8.895768,-19.569864 -19.570382,-19.569864 z M 312.29622,72.614054 a 12.177603,11.162802 0 0 0 -12.17806,11.163144 12.177603,11.162802 0 0 0 12.17806,11.163141 12.177603,11.162802 0 0 0 12.17705,-11.163141 12.177603,11.162802 0 0 0 -12.17705,-11.163144 z m -142.95199,3.732072 -53.83082,0.0801 c -0.23142,0.0013 -0.45075,-0.02784 -0.67438,0 -2.63883,0.326237 -4.70669,2.433354 -4.71547,4.982641 l 0.1664,130.167243 c 0,1.97134 0.53362,6.03736 6.07921,6.03736 l 49.84967,-0.19895 c 14.24948,-0.0255 23.79342,-0.26895 29.47728,-0.98754 0.0332,2.1e-4 0.10173,2.7e-4 0.13488,0 5.43939,-0.75555 11.20124,-2.1485 17.4661,-4.18269 10.89091,-3.40517 20.54876,-8.43594 28.85252,-15.15566 8.1302,-6.50982 14.43059,-14.21785 18.85879,-22.88801 2.8934,-5.6655 4.84272,-11.54441 5.84615,-17.58963 a 37.899589,34.741287 0 0 0 2.25568,0.0853 37.899589,34.741287 0 0 0 37.8995,-34.74052 37.899589,34.741287 0 0 0 -37.8995,-34.741026 37.899589,34.741287 0 0 0 -26.03201,9.513633 C 237.2393,91.895284 230.56608,87.891529 223.11769,84.770417 209.4049,78.956802 191.52626,76.306491 169.34476,76.346126 Z M 2.6505301,96.535075 c -10.2298367,0 -18.6808981,5.337105 -28.4659601,17.568435 -8.450736,-4.22537 -18.457955,-6.44922 -29.799732,-6.44922 -30.467126,0 -52.483618,16.01178 -52.483618,38.02817 0,15.12238 8.450667,25.79705 24.462589,31.35674 -17.568629,3.33582 -25.796879,10.22986 -25.796879,21.79402 0,9.78507 7.11613,17.12426 20.237012,20.68246 -14.899972,2.22388 -23.573242,9.34035 -23.573242,19.79258 0,14.67761 17.791244,21.79402 54.26284,21.79402 41.364127,0 64.492706,-13.12111 64.492706,-36.91659 0,-12.45373 -7.3389173,-22.906 -18.458307,-26.24182 -7.338796,-2.44627 -17.12404,-3.33571 -33.135962,-3.33571 h -15.344798 c -11.786553,0 -14.454931,-1.11192 -14.454931,-6.44922 0,-5.5597 4.002801,-7.33909 16.901292,-7.33909 h 4.002857 c 14.677594,0 22.906006,-1.33415 31.356742,-5.33714 12.898493,-5.78207 20.4597346,-17.12376 20.4597346,-30.91181 0,-10.45222 -3.5583098,-17.12428 -13.3433716,-25.13025 2.891039,-4.22536 5.559785,-6.22649 8.228436,-6.22649 0.6671654,0 1.1120781,0.22253 1.1120781,1.11208 v 0.88935 c 0,5.11491 5.78222802,10.00766 12.0090856,10.00766 7.7835733,0 13.7877893,-6.22728 13.7877893,-14.23324 0,-8.67313 -6.671297,-14.454935 -16.4563609,-14.454935 z M 167.01674,103.17705 c 10.84482,-0.0191 18.56018,0.31056 22.93657,0.91157 4.4364,0.60946 9.29648,1.8948 14.44202,3.88245 5.09987,1.94316 9.54442,4.32345 13.36455,7.28586 10.50981,8.17121 15.46471,17.84169 15.48744,30.64567 0.0233,13.11045 -4.76525,23.32252 -15.00272,31.88695 -3.14923,2.59937 -6.65097,4.8038 -10.5146,6.62802 -3.65172,1.70067 -8.41518,3.16631 -14.43011,4.42918 -5.6728,1.13476 -14.28464,1.78087 -25.49612,1.80093 l -23.87968,0.0351 -0.11266,-87.47167 z m -92.090518,7.81296 -52.260891,1.55701 v 11.34142 h 3.113505 c 13.565653,0.22239 14.232721,1.11216 14.232721,20.90467 v 39.36246 10.22986 1.77922 c -0.222385,3.11343 -0.444733,4.44775 -1.334283,5.78208 -1.334329,2.00149 -5.782305,2.89129 -15.122592,2.89129 h -0.889351 v 11.34143 h 69.60712 V 204.83802 H 90.938165 C 76.927737,204.61563 74.926222,203.28125 74.926222,195.2753 v -11.11973 z m -129.874243,8.22843 c 10.674615,0 16.234151,8.89541 16.234151,25.79688 0,16.01191 -6.00465,25.13025 -16.456877,25.13025 -6.671633,0 -10.896589,-2.44654 -13.342853,-8.00623 -2.446266,-4.89253 -3.558439,-11.34189 -3.558439,-18.45831 0,-16.45669 5.782241,-24.46259 17.124018,-24.46259 z m -20.682458,106.52374 h 29.133107 c 13.788041,0 16.456414,0.44503 20.237006,2.89128 2.001491,1.33432 3.336231,4.22516 3.336231,7.33859 0,9.11789 -11.119371,13.56609 -34.025313,13.56609 -17.12386,0 -26.908953,-4.67061 -26.908953,-12.89897 0,-4.89251 2.668227,-8.45074 8.227922,-10.89699 z" /></clipPath></defs><g
     inkscape:label="Layer 1"
     inkscape:groupmode="layer"
     id="layer1"
     transform="translate(139.68445,93.087547)"><rect
       style="opacity:1;fill:#ffffff;stroke-width:0.132292;stroke-linecap:square;stop-color:#000000"
       id="rect1515"
       width="127"
       height="127"
       x="-139.68445"
       y="-93.087547" /><path
       id="rect312"
       style="fill:#e40000;fill-opacity:1;stroke-width:0.132292;stroke-linecap:square;stop-color:#000000"
       d="m -127.26146,-68.979226 37.450754,28.088281 0.0045,19.372175 -35.190764,10.437145 z"
       sodipodi:nodetypes="ccccc" /><path
       id="path1077"
       style="fill:#e40000;fill-opacity:1;stroke-width:0.132292;stroke-linecap:square;stop-color:#000000"
       d="m -89.811241,-19.952096 -0.002,43.190961 -35.175119,-32.8061111 z"
       sodipodi:nodetypes="cccc" /><path
       id="path1614"
       style="fill:#729fcf;fill-opacity:1;stroke-width:0.132292;stroke-linecap:square;stop-color:#000000"
       d="m -125.73569,-71.098016 56.704761,-15.579033 -0.01087,37.787076 -19.189419,5.911363 z"
       sodipodi:nodetypes="ccccc" /><path
       id="path2411"
       style="fill:#729fcf;fill-opacity:1;stroke-width:0.132292;stroke-linecap:square;stop-color:#000000"
       d="m -67.502893,-86.439743 40.978765,24.43226 -40.947645,12.629786 z"
       sodipodi:nodetypes="cccc" /><path
       id="path3934"
       style="fill:#7fe719;fill-opacity:1;stroke-width:0.132292;stroke-linecap:square;stop-color:#000000"
       d="M -24.727882,-59.805133 -29.439511,-0.82909933 -67.485279,-27.554114 -67.49018,-46.65408 Z"
       sodipodi:nodetypes="ccccc" /><path
       id="path4005"
       style="fill:#7fe719;fill-opacity:1;stroke-width:0.132292;stroke-linecap:square;stop-color:#000000"
       d="m -69.019807,-46.187944 -0.01332,18.544163 -18.20158,5.399771 0.01696,-18.31987 z"
       sodipodi:nodetypes="ccccc" /><path
       id="path4007"
       style="fill:#7fe719;fill-opacity:1;stroke-width:0.132292;stroke-linecap:square;stop-color:#000000"
       d="M -87.244903,-20.66983 -68.354094,-26.294263 -30.166042,0.49612997 -87.245384,24.291145 Z"
       sodipodi:nodetypes="ccccc" /></g><g
     inkscape:groupmode="layer"
     id="layer2"
     inkscape:label="Text"
     style="display:inline"><path
       id="path369"
       style="stroke-width:0.161634"
       sodipodi:type="inkscape:offset"
       inkscape:radius="12.705688"
       inkscape:original="M 56.912109 52.279297 C 46.015108 52.279297 37.121094 61.174996 37.121094 71.849609 C 37.121094 82.746611 46.016524 91.642578 56.46875 91.642578 C 67.810527 91.642578 76.482422 82.968998 76.482422 71.849609 C 76.482422 61.174996 67.586723 52.279297 56.912109 52.279297 z M 312.29688 72.613281 A 12.177603 11.162802 0 0 0 300.11719 83.777344 A 12.177603 11.162802 0 0 0 312.29688 94.939453 A 12.177603 11.162802 0 0 0 324.47266 83.777344 A 12.177603 11.162802 0 0 0 312.29688 72.613281 z M 169.34375 76.345703 L 115.51367 76.425781 C 115.28225 76.427081 115.06347 76.397941 114.83984 76.425781 C 112.20101 76.752018 110.13183 78.858915 110.12305 81.408203 L 110.28906 211.57617 C 110.28906 213.54751 110.82355 217.61328 116.36914 217.61328 L 166.21875 217.41406 C 180.46823 217.38856 190.01146 217.14632 195.69531 216.42773 C 195.72851 216.42794 195.79693 216.42807 195.83008 216.42773 C 201.26947 215.67218 207.03201 214.27833 213.29688 212.24414 C 224.18777 208.83897 233.84663 203.80761 242.15039 197.08789 C 250.2806 190.57807 256.57961 182.87133 261.00781 174.20117 C 263.90121 168.53567 265.85204 162.65655 266.85547 156.61133 A 37.899588 34.741287 0 0 0 269.10938 156.69727 A 37.899588 34.741287 0 0 0 307.00977 121.95508 A 37.899588 34.741287 0 0 0 269.10938 87.214844 A 37.899588 34.741287 0 0 0 243.07812 96.728516 C 237.2392 91.895424 230.56559 87.890643 223.11719 84.769531 C 209.40439 78.955915 191.52722 76.306069 169.3457 76.345703 L 169.34375 76.345703 z M 2.6503906 96.535156 C -7.5794473 96.535156 -16.031343 101.87219 -25.816406 114.10352 C -34.267142 109.87815 -44.273457 107.6543 -55.615234 107.6543 C -86.082359 107.6543 -108.09961 123.66525 -108.09961 145.68164 C -108.09961 160.80402 -99.648639 171.47937 -83.636719 177.03906 C -101.20535 180.37488 -109.43359 187.26982 -109.43359 198.83398 C -109.43359 208.61905 -102.31619 215.95743 -89.195312 219.51562 C -104.09528 221.73951 -112.76953 228.85636 -112.76953 239.30859 C -112.76953 253.98619 -94.977455 261.10156 -58.505859 261.10156 C -17.141732 261.10156 5.9863281 247.98104 5.9863281 224.18555 C 5.9863281 211.73183 -1.3532678 201.27918 -12.472656 197.94336 C -19.811453 195.49709 -29.595502 194.60742 -45.607422 194.60742 L -60.953125 194.60742 C -72.739677 194.60742 -75.408203 193.4955 -75.408203 188.1582 C -75.408203 182.5985 -71.40435 180.82031 -58.505859 180.82031 L -54.503906 180.82031 C -39.826313 180.82031 -31.59722 179.48541 -23.146484 175.48242 C -10.247992 169.70035 -2.6875 158.35836 -2.6875 144.57031 C -2.6875 134.11809 -6.2461883 127.44738 -16.03125 119.44141 C -13.140209 115.21605 -10.471388 113.21484 -7.8027344 113.21484 C -7.135571 113.21484 -6.6894531 113.43662 -6.6894531 114.32617 L -6.6894531 115.21484 C -6.6894531 120.32975 -0.90849842 125.22266 5.3183594 125.22266 C 13.101932 125.22266 19.107422 118.99619 19.107422 110.99023 C 19.107422 102.3171 12.435453 96.535156 2.6503906 96.535156 z M 167.01758 103.17773 C 177.86241 103.15863 185.57673 103.48688 189.95312 104.08789 C 194.38953 104.69735 199.24899 105.98305 204.39453 107.9707 C 209.4944 109.91386 213.93963 112.2954 217.75977 115.25781 C 228.26958 123.42902 233.22532 133.09836 233.24805 145.90234 C 233.27125 159.01279 228.48159 169.22463 218.24414 177.78906 C 215.09491 180.38843 211.59411 182.59375 207.73047 184.41797 C 204.07875 186.11864 199.31573 187.58479 193.30078 188.84766 C 187.62799 189.98242 179.01617 190.62838 167.80469 190.64844 L 143.92383 190.68359 L 143.81055 103.21094 L 167.01758 103.17773 z M 74.925781 110.99023 L 22.666016 112.54688 L 22.666016 123.88867 L 25.779297 123.88867 C 39.344952 124.11106 40.011719 125.00046 40.011719 144.79297 L 40.011719 184.15625 L 40.011719 194.38477 L 40.011719 196.16406 C 39.789332 199.27749 39.567285 200.61294 38.677734 201.94727 C 37.343407 203.94876 32.894973 204.83789 23.554688 204.83789 L 22.666016 204.83789 L 22.666016 216.17969 L 92.271484 216.17969 L 92.271484 204.83789 L 90.9375 204.83789 C 76.92707 204.6155 74.925781 203.28134 74.925781 195.27539 L 74.925781 184.15625 L 74.925781 110.99023 z M -54.947266 119.21875 C -44.272653 119.21875 -38.714844 128.11415 -38.714844 145.01562 C -38.714844 161.02754 -44.717696 170.14648 -55.169922 170.14648 C -61.841555 170.14648 -66.067407 167.69836 -68.513672 162.13867 C -70.959938 157.24614 -72.072266 150.79806 -72.072266 143.68164 C -72.072266 127.22495 -66.289043 119.21875 -54.947266 119.21875 z M -75.630859 225.74219 L -46.498047 225.74219 C -32.710005 225.74219 -30.040358 226.18654 -26.259766 228.63281 C -24.258276 229.96713 -22.923828 232.85923 -22.923828 235.97266 C -22.923828 245.09056 -34.043278 249.53906 -56.949219 249.53906 C -74.073078 249.53906 -83.859375 244.86703 -83.859375 236.63867 C -83.859375 231.74615 -81.190553 228.18846 -75.630859 225.74219 z "
       d="m 56.912109,39.574219 c -17.811807,0 -32.496093,14.543249 -32.496093,32.27539 0,11.553332 6.104692,21.713778 15.179687,27.482422 L 29.277344,99.638672 C 27.756291,96.320451 25.615028,93.31051 22.914062,90.947266 17.332456,86.063567 10.045498,83.830078 2.6503906,83.830078 c -11.8303262,0 -22.4239746,5.871612 -31.8222656,15.230469 -8.158621,-2.721603 -17.03526,-4.111328 -26.443359,-4.111328 -17.459242,0 -33.153817,4.493255 -45.126956,13.177731 -11.97313,8.68448 -20.0625,22.3111 -20.0625,37.55469 0,10.80372 4.10713,20.61242 10.89649,28.4668 -0.45587,0.34941 -0.96439,0.6157 -1.40625,0.98828 -6.81623,5.74741 -10.82422,14.90169 -10.82422,23.69726 0,6.73603 2.4709,13.36636 6.51953,18.6836 -5.93338,5.43679 -9.85547,13.49935 -9.85547,21.79101 0,6.23636 2.21582,12.75569 6.22656,17.65039 4.01074,4.89471 9.32244,8.18368 15.20313,10.54297 11.761366,4.71859 26.476997,6.30469 45.539061,6.30469 22.025459,0 40.10437,-3.23831 54.0585934,-11.20703 C 8.633674,255.12959 17.418964,241.95879 18.480469,227.15039 a 12.706959,12.706959 0 0 0 4.185547,1.73438 h 69.605468 a 12.706959,12.706959 0 0 0 9.601566,-5.21094 c 3.38395,3.8656 9.25156,6.64453 14.49609,6.64453 a 12.706959,12.706959 0 0 0 0.0508,0 l 49.82227,-0.19922 c 13.55947,-0.0243 22.6248,-0.21877 29.58203,-0.98633 0.0403,-5e-5 0.0396,0.001 0.13672,0 a 12.706959,12.706959 0 0 0 1.32812,-0.0996 12.706959,12.706959 0 0 0 0.28906,-0.0215 c 6.31701,-0.87746 12.78213,-2.46268 19.57813,-4.66602 12.21293,-3.82722 23.3468,-9.5868 32.96094,-17.36132 9.43766,-7.56249 16.94898,-16.71278 22.20508,-27.00391 a 12.706959,12.706959 0 0 0 0.002,0 c 1.8691,-3.65984 3.36033,-7.44577 4.58789,-11.29883 10.23709,-1.52687 20.03078,-5.87096 27.58203,-12.79297 9.45901,-8.6708 15.22106,-21.20923 15.2207,-33.93359 -1.6e-4,-5.06168 -1.13628,-10.02209 -2.83007,-14.79297 10.75584,-2.21551 20.29109,-11.898047 20.29296,-23.382813 v -0.002 c 3.7e-4,-13.101102 -12.40535,-23.867429 -24.8789,-23.869141 -10.60519,-0.0017 -21.0876,7.805587 -24.01563,18.1875 -6.0911,-2.337174 -12.62696,-3.586064 -19.17382,-3.585937 a 12.706959,12.706959 0 0 0 -0.008,0 c -8.99086,0.0056 -17.93092,2.412727 -25.74414,6.734375 -4.77719,-3.1376 -9.86852,-5.899296 -15.30078,-8.177735 -16.07983,-6.812888 -35.52488,-9.465328 -58.71094,-9.425781 h -0.0234 l -53.82813,0.08008 a 12.706959,12.706959 0 0 0 -0.0527,0 c 0.87851,-0.0049 0.13256,-0.187747 -2.16797,0.09766 -8.44367,1.047806 -15.823106,8.149582 -15.855471,17.546875 a 12.706959,12.706959 0 0 0 0,0.05859 L 97.5625,194.32422 a 12.706959,12.706959 0 0 0 -5.291016,-2.19141 h -1.154296 c -1.673871,-0.0277 -2.326991,-0.19016 -3.486329,-0.32031 v -7.65625 -73.16602 A 12.706959,12.706959 0 0 0 75.048828,98.412109 C 83.52841,92.493227 89.1875,82.747112 89.1875,71.849609 c 0,-17.733478 -14.541912,-32.27539 -32.275391,-32.27539 z M 167.03516,115.88281 a 12.706959,12.706959 0 0 0 0.004,0 c 10.57784,-0.0186 18.1852,0.38093 21.18555,0.79297 3.28886,0.45181 7.23654,1.46411 11.5918,3.14649 a 12.706959,12.706959 0 0 0 0.0547,0.0215 c 4.16324,1.58628 7.44109,3.39372 10.09375,5.44922 8.19929,6.37597 10.5612,11.09784 10.57813,20.63281 0.0177,9.99183 -2.52801,15.4783 -10.42578,22.09375 -2.2879,1.88317 -4.84345,3.50183 -7.78321,4.89258 -2.34334,1.08754 -6.23628,2.35682 -11.57617,3.48242 -4.16754,0.82849 -12.27158,1.52968 -22.97656,1.54883 l -11.16797,0.0156 -0.0801,-62.06054 z m -220.902348,15.90625 c 3.166034,10.38067 2.492609,7.51221 2.447266,13.22656 -0.615688,3.78926 -11.233587,11.18175 -5.33789,12.30665 -0.03463,-0.0802 -0.01558,-0.0477 -0.126954,-0.30079 a 12.706959,12.706959 0 0 0 -0.263672,-0.56445 c -1.138248,-2.2765 -2.218749,-6.98294 -2.21875,-12.77539 0,-6.74 1.427508,-10.28608 1.986329,-11.07812 0.55882,-0.79205 -0.247632,-0.67969 2.433593,-0.67969 0.903997,0 1.058761,-0.14045 1.080078,-0.13477 z m 71.580079,2.75391 c 2.263266,2.53561 10.648,2.121 7.894531,2.05078 0.714179,0.0122 0.616268,0.0406 1.208984,0.0644 0.232125,1.96886 0.490235,4.5099 0.490235,8.13477 v 39.36328 7.76172 c -1.330652,0.081 -1.788604,0.21484 -3.751953,0.21484 h -0.888672 a 12.706959,12.706959 0 0 0 -11.101563,8.83203 c -4.782887,-7.05705 -11.73082192,-12.53837 -20.2324218,-15.13086 -1.4978562,-0.49297 -3.1001722,-0.84236 -4.6777342,-1.2246 14.22429406,-8.32554 23.363281,-23.36091 23.363281,-40.03907 0,-2.39621 -0.2900169,-4.74623 -0.7109374,-7.06836 3.0063134,-0.48649 5.8155874,-1.51086 8.4062504,-2.95898 z m -35.419922,52.42187 c -0.08073,0.0371 -0.165365,0.0697 -0.126953,0.0488 0.0413,-0.0194 0.08568,-0.0293 0.126953,-0.0488 z"
       transform="matrix(0.25918367,0,0,0.25918367,36.20393,24.126772)" /><path
       id="ellipse228"
       style="fill:#ffffff;stroke-width:0.161634"
       d="m 50.954812,37.676867 c -2.824325,0 -5.129917,2.305504 -5.129917,5.072189 0,2.824325 2.305685,5.129916 5.014731,5.129916 2.939604,0 5.187509,-2.247952 5.187509,-5.129916 0,-2.766685 -2.305638,-5.072189 -5.072323,-5.072189 z m 66.191198,5.270282 a 3.1562359,2.893216 0 0 0 -3.15635,2.893304 3.1562359,2.893216 0 0 0 3.15635,2.893305 3.1562359,2.893216 0 0 0 3.15609,-2.893305 3.1562359,2.893216 0 0 0 -3.15609,-2.893304 z m -37.050822,0.967292 -13.952069,0.02076 c -0.05998,3.38e-4 -0.116827,-0.0072 -0.174788,0 -0.683942,0.08456 -1.219897,0.630686 -1.222173,1.29142 l 0.04313,33.737224 c 0,0.510936 0.138306,1.564786 1.575632,1.564786 l 12.920222,-0.05158 c 3.693233,-0.0064 6.166867,-0.0697 7.640029,-0.255951 0.0086,5e-5 0.02636,8.6e-5 0.03496,0 1.409801,-0.19583 2.903184,-0.556861 4.526932,-1.084088 2.822744,-0.882567 5.325898,-2.186457 7.478096,-3.928096 2.107221,-1.687245 3.740181,-3.685041 4.887891,-5.932202 0.74993,-1.468405 1.25516,-2.992122 1.51523,-4.558944 a 9.8229541,9.0043741 0 0 0 0.58464,0.02211 9.8229541,9.0043741 0 0 0 9.82293,-9.004175 9.8229541,9.0043741 0 0 0 -9.82293,-9.004307 9.8229541,9.0043741 0 0 0 -6.747078,2.465779 C 97.692488,47.944518 95.962905,46.90681 94.032399,46.097869 90.478265,44.591075 85.844419,43.904158 80.09533,43.91443 Z m -43.204284,5.232646 c -2.651407,0 -4.841784,1.38329 -7.377912,4.553451 -2.190293,-1.095147 -4.784001,-1.671532 -7.723604,-1.671532 -7.896582,0 -13.6028968,4.149992 -13.6028968,9.85628 0,3.919474 2.1902758,6.686175 6.3403038,8.127155 -4.5535016,0.86459 -6.68613,2.651415 -6.68613,5.648653 0,2.536135 1.8443846,4.438328 5.245103,5.360555 -3.8618295,0.576399 -6.1097992,2.420873 -6.1097992,5.129918 0,3.804196 4.6112002,5.648655 14.0640422,5.648655 10.720906,0 16.715456,-3.400784 16.715456,-9.568183 0,-3.227803 -1.902128,-5.936862 -4.784091,-6.801447 -1.902097,-0.634034 -4.438273,-0.864564 -8.588301,-0.864564 h -3.977121 c -3.054882,0 -3.746483,-0.288192 -3.746483,-1.671528 0,-1.440985 1.037462,-1.902176 4.38054,-1.902176 h 1.037475 c 3.804192,0 5.936863,-0.345789 8.127156,-1.383299 3.343078,-1.498618 5.302828,-4.4382 5.302828,-8.011837 0,-2.709045 -0.922255,-4.438333 -3.458384,-6.51335 0.749311,-1.095144 1.441006,-1.613805 2.132677,-1.613805 0.172918,0 0.288232,0.05768 0.288232,0.288233 v 0.230505 c 0,1.325701 1.49866,2.593822 3.112559,2.593822 2.017375,0 3.57357,-1.614009 3.57357,-3.689023 0,-2.247934 -1.729091,-3.746483 -4.26522,-3.746483 z m 42.601035,1.721491 c 2.8108,-0.005 4.810493,0.08049 5.944784,0.236265 1.149851,0.157962 2.409499,0.491101 3.743137,1.006267 1.321801,0.503635 2.473755,1.120568 3.463875,1.888376 2.723972,2.117844 4.008196,4.624274 4.014085,7.942857 0.0057,3.398015 -1.235072,6.044816 -3.888451,8.264577 -0.81623,0.673714 -1.72382,1.245068 -2.725215,1.717872 -0.946468,0.44079 -2.181072,0.820656 -3.740054,1.147975 -1.470291,0.294111 -3.70234,0.461571 -6.608174,0.466772 l -6.189226,0.0091 -0.0292,-22.671227 z m -23.868356,2.024992 -13.54517,0.403552 v 2.939511 h 0.80697 c 3.515996,0.05764 3.688889,0.288253 3.688889,5.418148 v 10.20211 2.651411 0.461145 c -0.05764,0.806951 -0.115268,1.152785 -0.345825,1.498619 -0.345836,0.518751 -1.498679,0.749373 -3.919528,0.749373 h -0.230506 v 2.939518 h 18.041029 v -2.939518 h -0.345825 c -3.631275,-0.05762 -4.150034,-0.40349 -4.150034,-2.478501 V 71.856891 Z M 21.9623,55.026245 c 2.766686,0 4.207627,2.305545 4.207627,6.686129 0,4.150026 -1.556308,6.513351 -4.265354,6.513351 -1.729178,0 -2.824217,-0.634103 -3.45825,-2.075084 -0.634031,-1.268064 -0.922289,-2.939633 -0.922289,-4.784093 0,-4.265305 1.498663,-6.340303 4.438266,-6.340303 z m -5.360555,27.609213 h 7.550825 c 3.573635,0 4.265234,0.115339 5.245102,0.749373 0.518753,0.345834 0.864697,1.095087 0.864697,1.902037 0,2.363211 -2.88196,3.516117 -8.818806,3.516117 -4.438225,0 -6.974361,-1.210547 -6.974361,-3.3432 0,-1.26806 0.691561,-2.190293 2.132543,-2.824327 z" /></g></svg>
